<?xml version="1.0" standalone="no"?>
<!DOCTYPE svg PUBLIC "-//W3C//DTD SVG 20010904//EN"
 "http://www.w3.org/TR/2001/REC-SVG-20010904/DTD/svg10.dtd">
<svg version="1.0" xmlns="http://www.w3.org/2000/svg"
 width="511.000000pt" height="77.000000pt" viewBox="0 0 511.000000 77.000000"
 preserveAspectRatio="xMidYMid meet">
<metadata>
Created by potrace 1.15, written by Peter Selinger 2001-2017
</metadata>
<g transform="translate(0.000000,77.000000) scale(0.100000,-0.100000)"
fill="#000000" stroke="none">
<path d="M4 749 c3 -13 15 -181 27 -374 12 -192 25 -353 29 -358 3 -4 30 145
59 330 29 186 55 350 58 364 5 24 2 26 -64 38 -37 7 -78 15 -91 18 -20 5 -22
2 -18 -18z"/>
<path d="M200 610 c0 -88 3 -160 8 -160 17 0 382 114 382 119 0 4 -88 50 -195
104 l-195 97 0 -160z"/>
<path d="M3313 728 c3 -24 22 -193 43 -376 21 -182 42 -332 46 -332 4 0 8 9 8
20 0 11 6 20 13 20 6 0 117 -12 244 -27 128 -15 235 -25 237 -22 5 5 -30 159
-39 167 -3 3 -103 -18 -222 -46 -119 -29 -218 -50 -221 -47 -3 3 16 150 41
328 26 177 47 330 47 340 0 15 -12 17 -101 17 l-102 0 6 -42z"/>
<path d="M1935 513 c3 -16 14 -120 25 -233 11 -113 23 -221 27 -240 l6 -35 7
30 c5 17 21 123 36 238 15 114 31 207 35 207 4 0 60 -20 124 -45 65 -25 119
-44 120 -43 9 9 16 148 8 148 -5 0 -58 -9 -118 -20 -60 -11 -115 -20 -122 -20
-7 0 -13 9 -13 20 0 18 -7 20 -70 20 l-69 0 4 -27z"/>
<path d="M2485 503 c11 -73 55 -458 55 -477 0 -19 0 -19 14 -1 13 18 17 18
180 0 91 -10 168 -16 171 -13 9 8 -18 110 -30 114 -6 3 -78 -11 -160 -31 -81
-19 -149 -34 -151 -32 -2 2 12 106 31 232 19 126 35 233 35 237 0 5 -34 8 -75
8 l-75 0 5 -37z"/>
<path d="M4230 533 c0 -5 6 -17 14 -28 12 -19 5 -26 -105 -110 l-118 -90 0
-90 -1 -90 111 -44 c79 -31 107 -47 100 -54 -20 -20 -12 -25 18 -14 22 8 36 8
57 -1 33 -16 43 -8 21 16 -15 16 -10 21 86 71 56 30 105 59 109 65 4 6 8 43 8
83 l0 72 -102 77 c-57 42 -110 84 -118 93 -21 22 -80 54 -80 44z m116 -371
l-71 -83 -78 80 -79 80 33 48 c18 26 53 76 77 111 l45 63 72 -108 72 -108 -71
-83z"/>
<path d="M4815 445 l-210 -94 -5 -97 -5 -96 70 -36 c126 -63 255 -121 255
-114 0 4 -43 57 -96 117 l-95 110 153 147 c84 80 151 149 148 152 -3 3 -100
-37 -215 -89z"/>
<path d="M1304 505 c4 -15 10 -41 13 -57 3 -16 12 -32 19 -35 7 -2 63 1 124 7
61 6 113 10 115 8 2 -1 -68 -92 -156 -202 -87 -109 -159 -201 -159 -205 0 -3
115 -8 255 -10 l255 -3 -21 61 c-12 33 -23 61 -25 61 -2 0 -88 -18 -191 -40
-103 -22 -190 -39 -193 -38 -4 2 96 91 221 198 125 107 228 200 228 205 0 6
-27 25 -61 44 l-62 34 -18 -23 -19 -24 -132 18 c-73 10 -147 21 -166 24 -33 5
-34 4 -27 -23z"/>
<path d="M912 423 c-100 -171 -222 -395 -222 -408 0 -3 124 -5 275 -5 151 0
275 3 275 6 0 4 -33 59 -73 123 -41 64 -102 167 -137 229 -34 62 -66 115 -71
118 -4 2 -26 -26 -47 -63z m178 -208 c0 -7 -121 -174 -130 -180 -7 -4 -140
167 -140 180 0 3 61 5 135 5 74 0 135 -2 135 -5z"/>
<path d="M198 213 c2 -109 6 -199 7 -201 3 -3 386 248 404 264 9 8 -9 14 -194
69 -105 30 -197 58 -206 60 -14 5 -16 -14 -11 -192z"/>
<path d="M2060 348 c1 -16 28 -129 32 -133 5 -5 258 59 258 65 0 5 -259 80
-278 80 -7 0 -12 -6 -12 -12z"/>
<path d="M4970 259 c-128 -94 -127 -93 -52 -85 34 4 62 3 62 -1 0 -4 -9 -42
-20 -83 -10 -41 -18 -76 -16 -78 2 -1 33 -2 69 0 l66 3 -35 79 c-18 44 -32 81
-29 84 2 2 24 7 48 9 l44 5 -15 62 c-8 33 -18 64 -21 68 -3 3 -49 -25 -101
-63z"/>
<path d="M2195 139 c-66 -16 -131 -31 -144 -34 -13 -4 -20 -10 -15 -14 9 -9
262 -81 283 -81 7 0 11 27 11 80 0 44 -3 80 -7 79 -5 0 -62 -14 -128 -30z"/>
</g>
</svg>
